<?xml version="1.0" encoding="utf-8"?>
<!-- Generator: Adobe Illustrator 25.2.2, SVG Export Plug-In . SVG Version: 6.00 Build 0)  -->
<svg version="1.1" id="Layer_1" xmlns="http://www.w3.org/2000/svg" xmlns:xlink="http://www.w3.org/1999/xlink" x="0px" y="0px"
	 viewBox="0 0 1958 324.9" style="enable-background:new 0 0 1958 324.9;" xml:space="preserve">
<style type="text/css">
	.st0{fill:#B7127D;}
	.st1{fill:#E21385;}
	.st2{fill:#BC006E;}
	.st3{fill:#FFFFFF;}
</style>
<g id="Layer_2_1_">
	<g id="QuickCut_Header">
		<path class="st0" d="M1981.1,83.8c-1.5-14.7-3.4-29.4-5.1-44L990.7-16.1c-38.9,1.6-77.9,2.1-116.8,2.1c-13.9,0-27.8-0.4-41.7-1
			c-3.5-0.1-7.1-0.3-10.6-0.5c-3.1,0.5-6.1,0.7-9,0.5c-4-0.3-7.9-0.7-11.9-1c-0.8,0-1.6,0-2.5,0.1c-20.7,0.8-40.8,2.4-60.3-1.8
			c-3,0.5-6.1,0.8-9.2,0.8c-25.9,0-51.8-1.1-77.7-1.5c-26.3-0.4-52.2,0.9-78.4,2.1c-93.4,4-187,1.1-280.5-0.6
			c-46.5-0.8-92.9-1.4-139.4-0.2c-46.3,1.1-92.5,3.3-138.8,3.3c-4.8,0-9.5-0.6-13.8-1.6V245l1983.9-112.4
			C1983.7,116.3,1982.7,100.1,1981.1,83.8z"/>
		<path class="st0" d="M1983.6,158c1-24.8,0-49.5-2.5-74.2c-2.5-25-6.2-49.8-8.1-74.8c-0.7-9.6-0.8-19.2-0.9-28.8
			c-67.9,0.4-135.7-0.5-203.6-1.3c-41.8-0.5-83.7-0.6-125.5-0.8v205.1l340-13.5C1983.2,165.8,1983.4,161.9,1983.6,158z"/>
		<path class="st0" d="M1981.1,83.8c-2.5-25-6.2-49.8-8.1-74.8c-0.7-9.6-0.8-19.2-0.9-28.8c-67.9,0.4-135.7-0.5-203.6-1.3
			c-63.9-0.7-127.8-0.6-191.7-1.1c-63.6-0.5-127.3-1.4-190.9-2c-102.9-1-205.6-0.5-308.4,2.1c-13,1.3-26.1,2.5-39.3,3.4
			c-54.7,3.8-109.6,4.8-164.4,4.8c-13.9,0-27.8-0.4-41.7-1c-3.5-0.1-7.1-0.3-10.6-0.5c-3.1,0.5-6.1,0.7-9,0.5c-4-0.3-7.9-0.7-11.9-1
			c-0.8,0-1.6,0-2.5,0.1c-20.6,0.8-40.8,2.4-60.3-1.8c-3,0.5-6.1,0.8-9.2,0.8c-25.9,0-51.8-1.1-77.7-1.5
			c-14.8-0.2-29.5,0.1-44.3,0.6v196.4l1377-58.7C1983.2,107.8,1982.3,95.8,1981.1,83.8z"/>
		<path class="st1" d="M1983.6,158c1-24.8,0-49.5-2.5-74.2c-1.6-15.8-3.7-31.6-5.4-47.4L156.5-17.3c-1.3,0-2.6,0-3.9,0.1
			c-46.3,1.1-92.5,3.3-138.8,3.3c-4.8,0-9.5-0.6-13.8-1.6v234.1L1983.5,160C1983.5,159.3,1983.6,158.7,1983.6,158z"/>
		<path class="st1" d="M1981.1,83.8c-0.6-6.4-1.4-12.9-2.1-19.3l-1853.7-81C88.1-15.3,51-13.9,13.8-13.9c-4.8,0-9.5-0.6-13.8-1.6
			v242.6l1984-86.8C1984.1,121.5,1983,102.6,1981.1,83.8z"/>
		<path class="st2" d="M1981.1,83.8c-0.4-3.5-0.7-7-1.1-10.5L0-0.5v210.3l1984-74C1983.9,118.5,1982.8,101.1,1981.1,83.8z"/>
		<path class="st1" d="M1981.1,83.8c-2.5-25-6.2-49.8-8.1-74.8c-0.2-2.8-0.4-5.6-0.5-8.4L1337-24.6c-21.2-0.1-42.3-0.1-63.5-0.1
			v170.4l710-28.1C1983,106.3,1982.2,95.1,1981.1,83.8z"/>
		<path class="st2" d="M1981.1,83.8c-1.1-10.8-2.4-21.5-3.7-32.3L137.5-16.8c-41.3,1.2-82.5,2.9-123.8,2.9c-4.8,0-9.5-0.6-13.8-1.6
			v216l1983.8-73.7C1983.5,112.5,1982.5,98.1,1981.1,83.8z"/>
		<path class="st2" d="M1973.9,20.1L928.2-14.3c-18.1,0.3-36.3,0.4-54.4,0.4c-13.9,0-27.8-0.4-41.7-1c-3.5-0.1-7.1-0.3-10.6-0.5
			c-3.1,0.5-6.1,0.7-9,0.5c-4-0.3-7.9-0.7-11.9-1c-0.8,0-1.6,0-2.5,0.1c-20.7,0.8-40.8,2.4-60.3-1.8c-3,0.5-6.1,0.8-9.2,0.8
			c-25.9,0-51.8-1.1-77.7-1.5c-26.3-0.4-52.2,0.9-78.4,2.1c-93.4,4-187,1.1-280.5-0.6c-46.5-0.8-92.9-1.4-139.4-0.2
			c-46.3,1.1-92.5,3.3-138.8,3.3c-4.8,0-9.5-0.6-13.8-1.6v156.1l1980.2-65.1C1978.2,57,1975.7,38.6,1973.9,20.1z"/>
		<g id="Logo">
			<circle class="st3" cx="100" cy="100" r="90.1"/>
		</g>
	</g>
</g>
<image style="overflow:visible;" width="595" height="595" xlink:href="EC1C6681.jpg"  transform="matrix(0.2099 0 0 0.2099 37.551 37.551)">
</image>
</svg>
