<svg xmlns="http://www.w3.org/2000/svg" viewBox="0 0 1920 263.4"><defs><style>.cls-1{fill:#e21385;}.cls-2{fill:#f01485;}.cls-3{fill:#cc1567;}.cls-4{fill:#bc006e;}.cls-5{fill:#fff;}.cls-6{fill:#c1107d;}</style></defs><g id="Layer_2" data-name="Layer 2"><g id="QuickCut_Header" data-name="QuickCut Header"><polygon class="cls-1" points="960 121.76 0 242 0 1.52 960 121.76"/><polygon class="cls-2" points="507.78 147.33 1395 65.76 1395 228.9 507.78 147.33"/><polygon class="cls-2" points="379.21 97.43 1920 4.86 1920 190 379.21 97.43"/><polygon class="cls-1" points="671.52 121.76 158.02 242 158.02 1.52 671.52 121.76"/><polygon class="cls-3" points="102.02 126.22 989.24 48.43 989.24 204 102.02 126.22"/><rect class="cls-3" y="1.52" width="1920" height="128.48"/><polygon class="cls-1" points="942.68 118.03 429.18 204.43 429.18 31.62 942.68 118.03"/><polygon class="cls-1" points="989.24 97.43 475.74 183.83 475.74 11.02 989.24 97.43"/><polygon class="cls-4" points="665 143.16 0 263.4 0 22.93 665 143.16"/><polygon class="cls-5" points="1288.88 60.13 1807.17 257.06 750.74 193.59 1288.88 60.13"/><polygon class="cls-5" points="1217.47 80.99 811.19 0 1623.76 0 1217.47 80.99"/><polygon class="cls-2" points="1297.4 91.06 1600.76 18.13 1600.76 164 1297.4 91.06"/><polygon class="cls-4" points="706 121.76 0 242 0 1.52 706 121.76"/><polygon class="cls-4" points="665 83.73 0 164 0 3.46 665 83.73"/><polygon class="cls-2" points="1353.83 65.03 1789 0 1789 130.07 1353.83 65.03"/><polygon class="cls-6" points="1491 126.22 1920 46.92 1920 205.51 1491 126.22"/><polygon class="cls-6" points="1420.11 82.76 1920 3.46 1920 162.06 1420.11 82.76"/><g id="Logo"><circle class="cls-5" cx="102.02" cy="121.76" r="90.14"/></g></g></g></svg>