<svg xmlns="http://www.w3.org/2000/svg" xmlns:xlink="http://www.w3.org/1999/xlink" viewBox="0 0 1984.11 269.7">
  <defs>
    <clipPath id="clip-path">
      <rect x="37.7" y="62.3" width="124.9" height="124.9" style="fill: none"/>
    </clipPath>
  </defs>
  <g id="Layer_2" data-name="Layer 2">
    <g id="Layer_1-2" data-name="Layer 1">
      <g id="Layer_2-2" data-name="Layer 2">
        <g id="QuickCut_Header" data-name="QuickCut Header">
          <path d="M1981.2,108.5c-1.5-14.7-3.4-29.4-5.1-44L990.8,8.6c-38.9,1.6-77.9,2.1-116.8,2.1-13.9,0-27.8-.4-41.7-1-3.5-.1-7.1-.3-10.6-.5a39.49,39.49,0,0,1-9,.5c-4-.3-7.9-.7-11.9-1a21.75,21.75,0,0,0-2.5.1c-20.7.8-40.8,2.4-60.3-1.8a56.19,56.19,0,0,1-9.2.8c-25.9,0-51.8-1.1-77.7-1.5-26.3-.4-52.2.9-78.4,2.1-93.4,4-187,1.1-280.5-.6-46.5-.8-92.9-1.4-139.4-.2C106.5,8.7,60.3,10.9,14,10.9A61.39,61.39,0,0,1,.2,9.3V269.7L1984.1,157.3C1983.8,141,1982.8,124.8,1981.2,108.5Z" style="fill: #b7127d"/>
          <path d="M1983.7,182.7a525.39,525.39,0,0,0-2.5-74.2c-2.5-25-6.2-49.8-8.1-74.8-.7-9.6-.8-19.2-.9-28.8-67.9.4-135.7-.5-203.6-1.3-41.8-.5-83.7-.6-125.5-.8V207.9l340-13.5Z" style="fill: #b7127d"/>
          <path d="M1981.2,108.5c-2.5-25-6.2-49.8-8.1-74.8-.7-9.6-.8-19.2-.9-28.8-67.9.4-135.7-.5-203.6-1.3-63.9-.7-127.8-.6-191.7-1.1-63.6-.5-127.3-1.4-190.9-2-102.9-1-205.6-.5-308.4,2.1-13,1.3-26.1,2.5-39.3,3.4-54.7,3.8-109.6,4.8-164.4,4.8-13.9,0-27.8-.4-41.7-1-3.5-.1-7.1-.3-10.6-.5a39.49,39.49,0,0,1-9,.5c-4-.3-7.9-.7-11.9-1a21.75,21.75,0,0,0-2.5.1c-20.6.8-40.8,2.4-60.3-1.8a56.19,56.19,0,0,1-9.2.8c-25.9,0-51.8-1.1-77.7-1.5-14.8-.2-29.5.1-44.3.6V203.4l1377-58.7C1983.3,132.5,1982.4,120.5,1981.2,108.5Z" style="fill: #b7127d"/>
          <path d="M1983.7,182.7a525.39,525.39,0,0,0-2.5-74.2c-1.6-15.8-3.7-31.6-5.4-47.4L156.6,7.4c-1.3,0-2.6,0-3.9.1-46.3,1.1-92.5,3.3-138.8,3.3A61.39,61.39,0,0,1,.1,9.2V243.3l1983.5-58.6C1983.6,184,1983.7,183.4,1983.7,182.7Z" style="fill: #e21385"/>
          <path d="M1981.2,108.5c-.6-6.4-1.4-12.9-2.1-19.3L125.4,8.2C88.2,9.4,51.1,10.8,13.9,10.8A61.39,61.39,0,0,1,.1,9.2V251.8l1984-86.8A534.52,534.52,0,0,0,1981.2,108.5Z" style="fill: #e21385"/>
          <path d="M1981.2,108.5c-.4-3.5-.7-7-1.1-10.5L.1,24.2V234.5l1984-74C1984,143.2,1982.9,125.8,1981.2,108.5Z" style="fill: #bc006e"/>
          <path d="M1981.2,108.5c-2.5-25-6.2-49.8-8.1-74.8-.2-2.8-.4-5.6-.5-8.4L1337.1.1c-21.2-.1-42.3-.1-63.5-.1V170.4l710-28.1C1983.1,131,1982.3,119.8,1981.2,108.5Z" style="fill: #e21385"/>
          <path d="M1981.2,108.5c-1.1-10.8-2.4-21.5-3.7-32.3L137.6,7.9C96.3,9.1,55.1,10.8,13.8,10.8A61.39,61.39,0,0,1,0,9.2v216l1983.8-73.7C1983.6,137.2,1982.6,122.8,1981.2,108.5Z" style="fill: #bc006e"/>
          <path d="M1974,44.8,928.3,10.4c-18.1.3-36.3.4-54.4.4-13.9,0-27.8-.4-41.7-1-3.5-.1-7.1-.3-10.6-.5a39.49,39.49,0,0,1-9,.5c-4-.3-7.9-.7-11.9-1a21.75,21.75,0,0,0-2.5.1c-20.7.8-40.8,2.4-60.3-1.8a56.19,56.19,0,0,1-9.2.8c-25.9,0-51.8-1.1-77.7-1.5-26.3-.4-52.2.9-78.4,2.1-93.4,4-187,1.1-280.5-.6-46.5-.8-92.9-1.4-139.4-.2C106.4,8.8,60.2,11,13.9,11A61.39,61.39,0,0,1,.1,9.4V165.5l1980.2-65.1C1978.3,81.7,1975.8,63.3,1974,44.8Z" style="fill: #bc006e"/>
          <g id="Logo">
            <circle cx="100.1" cy="124.7" r="90.1" style="fill: #fff"/>
          </g>
        </g>
      </g>
      <g id="EC1C6681.psd" style="isolation: isolate">
        <g style="clip-path: url(#clip-path)">
          <image id="EC1C6681" width="600" height="600" transform="translate(37.65 62.25) scale(0.21)" xlink:href="../EC1C6681.png" style="isolation: isolate"/>
        </g>
      </g>
    </g>
  </g>
</svg>
